<svg xmlns="http://www.w3.org/2000/svg" viewBox="0 0 814 1000">
  <path fill="#A2AAAD" d="M788.1 340.9c-5.8 4.5-108.2 62.2-108.2 190.5 0 148.4 130.3 200.9 134.2 202.2-.6 3.2-20.7 71.9-68.7 141.9-42.8 61.6-87.5 123.1-155.5 123.1s-85.5-39.5-164-39.5c-76.5 0-103.7 40.8-165.9 40.8s-105.6-57.8-155.5-127.4c-58.3-81.3-105.9-207.6-105.9-328.3 0-193 125.3-295.3 248.6-295.3 65.5 0 120.1 43 161.2 43s100.3-45.6 174.6-45.6c28.2 0 129.6 2.6 196.5 99.1zm-269.5-93.2c31.2-36.9 53.4-88.1 53.4-139.3 0-7.1-.6-14.3-1.9-20.1-50.9 1.9-110.8 33.9-147.1 76.5-27.5 31.2-56 82.5-56 134.4 0 7.8.6 15.6 1.3 18.2 2.6.6 6.4 1.3 10.2 1.3 45.6-.1 103-30.6 140.1-71z"/>
</svg>
